<?xml version="1.0" encoding="utf-8"?>
<!-- Generator: Adobe Illustrator 19.0.0, SVG Export Plug-In . SVG Version: 6.00 Build 0)  -->
<svg version="1.1" id="Layer_1" xmlns="http://www.w3.org/2000/svg" xmlns:xlink="http://www.w3.org/1999/xlink" x="0px" y="0px"
	 viewBox="0 0 500 500" style="enable-background:new 0 0 500 500;" xml:space="preserve">
<style type="text/css">
	.st0{display:none;fill:#FFFFFF;}
</style>
<g>
	<path class="st0" d="M215.5,11.9c91.5,0,183,0,274.5,0c0,159.3,0,318.7,0,478c-46.7,0-93.4,0-140,0c3.1-1.1,6.3-1.8,9.2-3.2
		c13.3-6.6,18.8-17.8,18.7-32.3c0-67.5,0-135,0-202.5c0-1.8,0-3.6,0-5.5c9.1,3,11.6,3.4,16.2,1c27.7-14.1,52.1-32.1,69.7-58.2
		c7-10.4,11.8-21.8,14.6-34.1c0.8-3.3,0.3-6.7-2.8-8.1c-2.2-1-5.5-0.9-7.7,0.1c-1.7,0.8-2.5,3.7-3.4,5.8
		c-3.9,8.9-6.6,18.6-11.6,26.8c-15.2,24.7-38.1,41-63.3,54.3c-1.1,0.6-3.1,0.4-4.2-0.2c-20.3-10.3-38.6-23.3-53.5-40.6
		c-13.8-16.1-23.1-34.3-23-56.1c0.1-24.7,21.9-41.6,45.2-35.3c9.1,2.5,15.9,8,21.1,15.8c4.8,7.2,12.1,9.5,18.4,5.7
		c2.8-1.7,5.1-4.5,7.1-7.2c6.7-9.5,15.7-15,27.3-15.6c16.3-0.8,28,6.5,35.3,21.1c2.4,4.8,6,6.3,9.7,4.5c4-1.9,5-5.9,2.7-10.8
		c-13.9-29.7-51.2-38.5-76.7-17.8c-4.4,3.5-7.9,8.2-11.9,12.4c-1.7-2.2-3.3-4.7-5.4-6.7c-2.8-2.6-3.9-5.4-4.4-9.2
		c-2.2-18.6-14.9-29.7-33.7-29.9c-17.4-0.1-34.8,0-52.3,0c-1.6,0-3.3,0-5,0c-0.2-1.2-0.3-1.8-0.3-2.5c-1-14-7.5-20-21.5-20
		c-10,0-19.9,0-29.9,0c-1.6,0-3.3-0.2-4.7-0.2c-0.2-0.9-0.3-1.2-0.3-1.5c0-1.6-0.2-3.1,0-4.7C230.7,23.9,226.3,16,215.5,11.9z"/>
	<path d="M215.5,11.9c10.8,4,15.2,12,14.2,23.3c-0.1,1.5,0,3.1,0,4.7c0,0.3,0.1,0.6,0.3,1.5c1.5,0.1,3.1,0.2,4.7,0.2
		c10,0,19.9,0,29.9,0c14.1,0,20.5,6,21.5,20c0,0.6,0.2,1.2,0.3,2.5c1.7,0,3.3,0,5,0c17.4,0,34.8-0.1,52.3,0
		c18.8,0.1,31.5,11.3,33.7,29.9c0.5,3.8,1.6,6.7,4.4,9.2c2.1,2,3.7,4.5,5.4,6.7c4-4.3,7.6-8.9,11.9-12.4
		c25.5-20.7,62.8-11.9,76.7,17.8c2.3,4.9,1.3,8.9-2.7,10.8c-3.8,1.8-7.4,0.3-9.7-4.5c-7.3-14.6-19-21.9-35.3-21.1
		c-11.6,0.5-20.6,6.1-27.3,15.6c-1.9,2.7-4.3,5.5-7.1,7.2c-6.3,3.9-13.6,1.6-18.4-5.7c-5.2-7.9-12-13.4-21.1-15.8
		c-23.4-6.3-45.2,10.7-45.2,35.3c-0.1,21.8,9.2,40,23,56.1c14.9,17.4,33.2,30.4,53.5,40.6c1.2,0.6,3.1,0.7,4.2,0.2
		c25.2-13.3,48.1-29.6,63.3-54.3c5-8.2,7.8-17.8,11.6-26.8c0.9-2.1,1.7-5,3.4-5.8c2.2-1,5.5-1.1,7.7-0.1c3.2,1.4,3.6,4.8,2.8,8.1
		c-2.8,12.3-7.6,23.7-14.6,34.1c-17.6,26.1-42.1,44.1-69.7,58.2c-4.6,2.3-7.1,2-16.2-1c0,2,0,3.7,0,5.5c0,67.5,0,135,0,202.5
		c0,14.4-5.5,25.7-18.7,32.3c-2.9,1.4-6.1,2.2-9.2,3.2c-45.1,0-90.2,0-135.4,0c-3.2-2.3-5.8-4.9-4.2-9.3c1.6-4.3,5.2-4.9,9.2-4.7
		c1.2,0.1,2.5,0,3.7,0c40.1,0,80.3,0,120.4,0c12.3,0,20.1-7.5,20.1-19.6c0.1-71.7,0-143.4,0-215.2c0-1.3-0.2-3.2-1-3.8
		c-4-3-8.2-5.7-13.1-9c0,3,0,4.9,0,6.7c0,44.6,0,89.3,0.1,133.9c0,4.7-1.4,8.2-4.8,11.6c-25.7,25.5-51.3,51.2-76.9,76.9
		c-2.9,3-6.1,4.4-10.3,4.4c-63.8-0.1-127.6,0-191.4-0.1c-10.4,0-15.1-4.8-15.1-15.1c0-106.3,0-212.5,0-318.8
		c0-10.5,4.7-15.2,15-15.2c21.3,0,42.6,0,63.9,0c1.7,0,3.3,0,5.1,0c0-4.4,0-8.2,0-12c-15.6-1.8-20.1-8.9-21-22.4
		c-1.5-0.1-3-0.2-4.5-0.2c-17.3,0-34.5,0-51.8,0c-13.8,0-20.8,7.2-20.8,21.1c0,118.5,0,237.1,0,355.6c0,14,7.2,21.1,21.3,21.1
		c40.9,0,81.8,0,122.7,0c3.9,0,7.5,0.3,9.3,4.6c1.8,4.4-1.1,6.9-3.9,9.4c-45.1,0-90.2,0-135.4,0c-22.2-5.2-28.3-21.2-28.2-39
		c0.4-117,0.2-234,0.2-351c0-22.8,13.1-35.8,36-35.8c16.8,0,33.6,0,50.4,0c1.7,0,3.3,0,5,0c0.1-1.4,0.2-2.2,0.2-2.9
		c0.6-12.6,7.6-19.4,20.1-19.5c6.5-0.1,13.1,0,19.6,0c5.4,0,10.8,0,15.9,0c0.8-6.5,0.8-12.4,2.3-18.1c1.6-6.4,7.3-9.3,13-11.6
		C195.5,11.9,205.5,11.9,215.5,11.9z M65.6,126.9c0,107.2,0,213.9,0,320.6c62.9,0,125.3,0,188.2,0c0-2,0-3.7,0-5.3
		c0-20.2,0-40.4,0-60.7c0-11,4.6-15.6,15.6-15.6c20.2,0,40.4,0,60.7,0c1.7,0,3.4,0,5.4,0c0.1-1.9,0.2-3.5,0.2-5
		c0-46.5,0-93,0.1-139.5c0-3.3-1.1-5.5-3.4-7.6c-10.8-10-20-21.3-26.7-34.5c-8.3-16.4-12.9-33.5-10.1-52.2c-10.2,0-20.1,0-30.3,0
		c0,3.1,0,5.9,0,8.6c-0.1,11.4-5.9,17.4-17.2,17.4c-31.7,0.1-63.5,0.1-95.2,0c-11.1,0-17-5.9-17.3-16.9c-0.1-3,0-6.1,0-9.2
		C111.8,126.9,88.8,126.9,65.6,126.9z M200,55.7c-21.3,0-42.6,0-63.9,0c-6.5,0-7.4,0.9-7.4,7.2c0,5.4,0,10.9,0,16.3
		c0,5.9,1.2,7,7.2,7.1c13.1,0,26.1,0,39.2,0c29.9,0,59.7,0,89.6,0c6.1,0,7.4-1.2,7.4-6.8c0.1-5.3,0-10.6,0-15.9c0-7-0.8-7.9-7.7-7.9
		C243,55.7,221.5,55.7,200,55.7z M267.9,435c18.1-18.1,36.8-36.8,54.7-54.7c-17.2,0-35.9,0-54.7,0
		C267.9,399.2,267.9,417.9,267.9,435z M362.1,89.3c-3.9-7.9-9.9-11.2-17.8-11.2c-15.1,0-30.1,0-45.2,0c-4.2,0-8.3,0-12.8,0
		c0.1,14.3-6.8,21.8-20.8,22.4c0,4.2,0,8,0,12.2c10.3,0,20.4-0.1,30.5,0.1c3.4,0.1,5.3-1,7.1-3.8c6.6-10.3,16-17.1,27.8-20.6
		C341.1,85.3,351.3,86,362.1,89.3z M149.8,112.4c33.9,0,67.5,0,101.1,0c0-4.1,0-7.9,0-11.8c-33.8,0-67.3,0-101.1,0
		C149.8,104.6,149.8,108.3,149.8,112.4z M149.9,139.1c2.2,0,4.1,0,5.9,0c20.3,0,40.7,0,61,0c10.1,0,20.2,0.1,30.3-0.1
		c1.3,0,3.6-1.4,3.8-2.4c0.5-3.1,0.2-6.3,0.2-9.5c-34.2,0-67.6,0-101.2,0C149.9,131.1,149.9,134.8,149.9,139.1z M215.6,41.4
		c0-3.9,0.4-7.6-0.2-11.2c-0.3-1.6-2.5-4-4-4c-7.3-0.4-14.6-0.4-21.8,0c-1.5,0.1-3.9,2.1-4.1,3.5c-0.6,3.9-0.2,7.9-0.2,11.8
		C195.6,41.4,205.3,41.4,215.6,41.4z"/>
	<path class="st0" d="M186.5,489.9c2.9-2.5,5.7-5,3.9-9.4c-1.7-4.3-5.3-4.6-9.3-4.6c-40.9,0-81.8,0-122.7,0
		c-14.2,0-21.3-7.1-21.3-21.1c0-118.5,0-237.1,0-355.6c0-13.9,7.1-21,20.8-21.1c17.3,0,34.5,0,51.8,0c1.5,0,3,0.1,4.5,0.2
		c0.8,13.6,5.4,20.6,21,22.4c0,3.8,0,7.6,0,12c-1.8,0-3.4,0-5.1,0c-21.3,0-42.6,0-63.9,0c-10.4,0-15,4.7-15,15.2
		c0,106.3,0,212.5,0,318.8c0,10.3,4.8,15.1,15.1,15.1c63.8,0,127.6,0,191.4,0.1c4.2,0,7.4-1.4,10.3-4.4
		c25.6-25.7,51.2-51.3,76.9-76.9c3.4-3.3,4.8-6.9,4.8-11.6c-0.1-44.6-0.1-89.3-0.1-133.9c0-1.9,0-3.7,0-6.7c4.9,3.3,9.1,6,13.1,9
		c0.8,0.6,1,2.5,1,3.8c0,71.7,0.1,143.4,0,215.2c0,12.1-7.8,19.6-20.1,19.6c-40.1,0-80.3,0-120.4,0c-1.2,0-2.5,0-3.7,0
		c-4-0.2-7.6,0.5-9.2,4.7c-1.6,4.4,1.1,7,4.2,9.3C205.2,489.9,195.9,489.9,186.5,489.9z"/>
	<path class="st0" d="M185.6,11.9c-5.7,2.3-11.4,5.2-13,11.6c-1.4,5.6-1.5,11.6-2.3,18.1c-5.1,0-10.5,0-15.9,0c-6.5,0-13.1,0-19.6,0
		c-12.5,0.1-19.6,6.9-20.1,19.5c0,0.8-0.1,1.5-0.2,2.9c-1.7,0-3.3,0-5,0c-16.8,0-33.6,0-50.4,0c-22.8,0-36,13.1-36,35.8
		c0,117,0.2,234-0.2,351c-0.1,17.8,6.1,33.8,28.2,39c-13.1,0-26.1,0-39.2,0c0-159.3,0-318.7,0-478C69.8,11.9,127.7,11.9,185.6,11.9z
		"/>
	<path class="st0" d="M65.6,126.9c23.2,0,46.2,0,69.9,0c0,3.2-0.1,6.2,0,9.2c0.3,11,6.2,16.9,17.3,16.9c31.7,0.1,63.5,0.1,95.2,0
		c11.3,0,17.1-6,17.2-17.4c0-2.8,0-5.5,0-8.6c10.3,0,20.1,0,30.3,0c-2.8,18.7,1.8,35.8,10.1,52.2c6.7,13.2,15.9,24.5,26.7,34.5
		c2.3,2.2,3.4,4.4,3.4,7.6c-0.1,46.5-0.1,93-0.1,139.5c0,1.5-0.1,3-0.2,5c-2,0-3.7,0-5.4,0c-20.2,0-40.4,0-60.7,0
		c-11,0-15.6,4.6-15.6,15.6c0,20.2,0,40.4,0,60.7c0,1.7,0,3.4,0,5.3c-62.8,0-125.3,0-188.2,0C65.6,340.8,65.6,234.1,65.6,126.9z
		 M182.5,310.5c-0.8-2.6-1.2-3.8-1.5-5c-7.2-27.7-14.4-55.3-21.6-83c-1.1-4.3-2-8.9-7.8-8.9c-5.8-0.1-6.7,4.6-8,8.8
		c-4.5,14.7-9,29.4-13.3,44.2c-0.9,3.1-2.2,4.1-5.5,4c-7.8-0.3-15.6-0.2-23.3,0c-4.8,0.1-7.7,2.9-7.7,7c0,3.9,2.8,6.9,7.3,6.9
		c10.9,0.2,21.8,0.1,32.7,0c3.5,0,5.9-1.7,7.1-5.1c0.7-1.9,1.2-3.8,1.8-5.8c2.6-8.5,5.3-17,8.3-26.9c0.7,2.2,1,3,1.2,3.8
		c7.3,27.8,14.6,55.6,21.8,83.4c1,4,2.9,7.1,7.3,7.2c4.2,0.1,6.1-2.9,7.4-6.6c4.9-13.7,10-27.4,15.1-41.1c3.3-9.1,3.3-9,13.2-9
		c3,0,4.4,0.9,5.3,3.8c1.9,5.9,4.3,11.7,6.4,17.5c1.3,3.7,3.2,7,7.8,6.8c4.5-0.2,6.1-3.5,7.1-7.4c2.7-11,5.6-22,8.4-33
		c1.1-4.1,2.2-8.2,3.3-12.4c3,6.1,5.1,12.2,7,18.3c1.3,4.3,4.1,6.4,8.6,6.4c9.3,0,18.7,0.1,28-0.1c5.1-0.1,8.2-2.9,8.2-7.1
		c0-4.1-3.2-6.8-8.3-6.9c-6.8-0.1-13.7-0.2-20.5,0c-2.9,0.1-4-1-4.8-3.6c-3.6-11.5-7.5-23-11.2-34.6c-1.2-3.7-3.2-6.6-7.5-6.4
		c-4.3,0.2-6.1,3.2-7,6.9c-1.3,5.4-2.7,10.8-4.1,16.3c-2.7,10.5-5.4,21-8.4,32.4c-0.9-1.9-1.3-2.8-1.7-3.7
		c-2.7-6.7-3.5-7.3-10.6-7.4c-4.2,0-8.4,0-12.6,0c-12.8,0-12.8,0-17.2,12C189.6,291.3,186.3,300.3,182.5,310.5z"/>
	<path class="st0" d="M200,55.7c21.5,0,42.9,0,64.4,0c6.8,0,7.7,0.8,7.7,7.9c0,5.3,0,10.6,0,15.9c-0.1,5.7-1.3,6.8-7.4,6.8
		c-29.9,0-59.7,0-89.6,0c-13.1,0-26.1,0-39.2,0c-6,0-7.1-1.2-7.2-7.1c0-5.4,0-10.9,0-16.3c0-6.3,0.9-7.2,7.4-7.2
		C157.4,55.7,178.7,55.7,200,55.7z"/>
	<path class="st0" d="M267.9,435c0-17.1,0-35.7,0-54.7c18.8,0,37.5,0,54.7,0C304.7,398.2,286,416.9,267.9,435z"/>
	<path class="st0" d="M362.1,89.3c-10.8-3.3-21-4-31.3-1C319,91.9,309.6,98.7,303,109c-1.8,2.8-3.7,3.9-7.1,3.8
		c-10.1-0.2-20.1-0.1-30.5-0.1c0-4.2,0-8.1,0-12.2c14-0.6,20.9-8.1,20.8-22.4c4.5,0,8.7,0,12.8,0c15.1,0,30.1,0,45.2,0
		C352.2,78.1,358.2,81.4,362.1,89.3z"/>
	<path class="st0" d="M149.8,112.4c0-4.1,0-7.8,0-11.8c33.7,0,67.2,0,101.1,0c0,3.9,0,7.7,0,11.8
		C217.2,112.4,183.7,112.4,149.8,112.4z"/>
	<path class="st0" d="M149.9,139.1c0-4.2,0-8,0-12.1c33.5,0,67,0,101.2,0c0,3.2,0.3,6.4-0.2,9.5c-0.2,1-2.4,2.4-3.8,2.4
		c-10.1,0.2-20.2,0.1-30.3,0.1c-20.3,0-40.7,0-61,0C154,139.1,152.2,139.1,149.9,139.1z"/>
	<path class="st0" d="M215.6,41.4c-10.2,0-20,0-30.3,0c0-3.9-0.4-7.9,0.2-11.8c0.2-1.4,2.6-3.4,4.1-3.5c7.3-0.4,14.6-0.4,21.8,0
		c1.5,0.1,3.7,2.5,4,4C216,33.8,215.6,37.5,215.6,41.4z"/>
	<path d="M182.5,310.5c3.8-10.1,7.1-19.1,10.4-28.1c4.4-12,4.4-12,17.2-12c4.2,0,8.4,0,12.6,0c7.1,0,8,0.6,10.6,7.4
		c0.4,0.9,0.8,1.8,1.7,3.7c3-11.4,5.7-21.9,8.4-32.4c1.4-5.4,2.8-10.8,4.1-16.3c0.9-3.8,2.8-6.8,7-6.9c4.3-0.2,6.3,2.7,7.5,6.4
		c3.8,11.5,7.6,23,11.2,34.6c0.8,2.6,2,3.7,4.8,3.6c6.8-0.2,13.7-0.1,20.5,0c5.1,0.1,8.2,2.7,8.3,6.9c0,4.2-3,7-8.2,7.1
		c-9.3,0.1-18.7,0-28,0.1c-4.5,0-7.2-2.1-8.6-6.4c-1.9-6.1-4-12.2-7-18.3c-1.1,4.1-2.2,8.2-3.3,12.4c-2.8,11-5.7,22-8.4,33
		c-1,3.9-2.6,7.2-7.1,7.4c-4.5,0.2-6.4-3-7.8-6.8c-2.1-5.8-4.5-11.6-6.4-17.5c-0.9-2.9-2.3-3.8-5.3-3.8c-9.9,0.1-9.9-0.1-13.2,9
		c-5,13.7-10.1,27.4-15.1,41.1c-1.3,3.7-3.2,6.7-7.4,6.6c-4.4-0.1-6.3-3.2-7.3-7.2c-7.2-27.8-14.5-55.6-21.8-83.4
		c-0.2-0.8-0.5-1.6-1.2-3.8c-3,9.9-5.7,18.4-8.3,26.9c-0.6,1.9-1.2,3.9-1.8,5.8c-1.2,3.3-3.6,5-7.1,5.1c-10.9,0.1-21.8,0.1-32.7,0
		c-4.5-0.1-7.2-3-7.3-6.9c0-4.1,2.9-6.9,7.7-7c7.8-0.1,15.6-0.2,23.3,0c3.3,0.1,4.6-1,5.5-4c4.3-14.8,8.8-29.5,13.3-44.2
		c1.3-4.2,2.2-8.9,8-8.8c5.7,0.1,6.6,4.7,7.8,8.9c7.2,27.7,14.4,55.3,21.6,83C181.4,306.7,181.8,307.9,182.5,310.5z"/>
</g>
</svg>
