<?xml version="1.0" encoding="utf-8"?>
<!-- Generator: Adobe Illustrator 19.0.0, SVG Export Plug-In . SVG Version: 6.00 Build 0)  -->
<svg version="1.1" id="Layer_1" xmlns="http://www.w3.org/2000/svg" xmlns:xlink="http://www.w3.org/1999/xlink" x="0px" y="0px"
	 viewBox="0 0 500 500" style="enable-background:new 0 0 500 500;" xml:space="preserve">
<style type="text/css">
	.st0{display:none;fill:#FFFFFF;}
</style>
<g>
	<path class="st0" d="M16.4,16.4c156.6,0,313.3,0,469.9,0c0,156.6,0,313.3,0,469.9c-156.6,0-313.3,0-469.9,0
		C16.4,329.7,16.4,173.1,16.4,16.4z M221.6,221.6c-12.1,0-23.7,0-35.3,0c-5.8,0-8.6,2.7-8.6,8.2c-0.1,14-0.1,28.1,0,42.1
		c0,5.4,2.8,8.2,8.2,8.2c10.4,0.1,20.8,0,31.1,0c1.5,0,2.9,0.1,4.6,0.2c0,11.9,0,23.3,0,34.7c0,6.3,2.6,9,8.8,9
		c13.6,0,27.2,0,40.7,0c6.5,0,9-2.6,9-9.3c0-10.1,0-20.1,0-30.2c0-1.4,0-2.9,0-4.5c12,0,23.3,0,34.6,0c6.9,0,9.3-2.5,9.4-9.4
		c0-12.7,0-25.3,0-38c0-9.3-1.9-11.2-11.2-11.2c-10.8,0-21.6,0-32.7,0c0-11.8,0-23,0-34.3c0-7.2-2.4-9.7-9.5-9.7
		c-13.1,0-26.2,0-39.4,0c-7.4,0-9.7,2.4-9.7,10C221.6,198.7,221.6,209.8,221.6,221.6z M240.3,455.4c0,0.2,0,0.4,0,0.7
		c13.1,0,26.3,0,39.4,0c2.2,0,4.6-0.2,6.7-1.1c20.9-8.5,41.7-17.2,62.6-25.7c5.1-2.1,8.1-5.7,9.5-10.9c3.9-13.9-3.7-29.2-17.4-33.6
		c-5.5-1.8-11.9-2.9-17.5-2c-12.3,2.1-24.3,5.4-36.4,8.6c-5.6,1.5-7.7,5.4-6.2,9.8c1.5,4.4,5.3,5.7,11,3.9c4.6-1.5,9.3-3.1,14-4.4
		c8.7-2.3,17.4-4.9,26.5-3.4c7.1,1.2,10.9,5.3,12.2,12.4c0.6,3.5-0.2,5.5-3.8,6.9c-19.1,7.7-38,15.6-57.1,23.4
		c-2,0.8-4.4,1.2-6.6,1.2c-23.5,0.1-47,0-70.5,0.1c-13.4,0-26-3-38-8.8c-16.2-7.9-32.2-16.1-48.6-23.4c-9.7-4.2-19.9-8.5-30.3-9.7
		c-16.6-2-33.5-1.6-50.2-2c-5.4-0.1-8.6,2.9-8.6,7.4c0,4.4,3.3,7.2,8.7,7.2c9.9,0,19.8,0.1,29.8,0c15.2-0.1,29.7,3.1,43.3,9.7
		c16.3,7.9,32.6,15.8,48.9,23.8c10.5,5.1,21.4,9.2,33.1,9.7C210.1,455.9,225.2,455.4,240.3,455.4z M261.1,46.4c0-0.2,0-0.4,0-0.7
		c-13,0-25.9-0.1-38.9,0.1c-2.5,0-5.2,0.5-7.5,1.4c-20.6,8.4-41.1,17-61.7,25.3c-5.7,2.3-9.4,6.5-9.8,12.2c-0.3,5.9,0,12.4,2,17.8
		c4.6,12,17.3,18.9,32,16.7c12.7-1.9,25.2-5.7,37.7-8.9c5.3-1.4,7.3-5.3,5.9-9.6c-1.4-4.2-5.3-5.8-10.5-4.2
		c-4.8,1.5-9.5,3.2-14.4,4.5c-8.7,2.4-17.4,4.9-26.5,3.4c-7.1-1.2-11-5.3-12.2-12.3c-0.6-3.5,0-5.5,3.7-7
		c19.1-7.6,38-15.6,57.1-23.4c2-0.8,4.4-1.3,6.6-1.3c23.7-0.1,47.3,0,71-0.1c12.6,0,24.5,2.6,35.8,8c16.3,7.9,32.4,16.3,49,23.5
		c10.2,4.5,21,9,32,10.4c16.2,2.1,32.8,1.6,49.3,2c5.8,0.2,9.1-2.7,9.1-7.3c0-4.6-3.4-7.3-9.1-7.3c-10.1,0-20.1,0-30.2,0
		c-14.1,0-27.6-2.7-40.3-8.8c-17.6-8.4-35.1-17-52.7-25.4c-10-4.8-20.4-8.5-31.5-8.9C291.6,46,276.4,46.4,261.1,46.4z M250.2,97.9
		c1.5,0.6,2.8,1.1,4,1.6c23.5,9.7,47,19.5,70.5,29.2c5.4,2.2,9.5,1.1,11.3-3c1.9-4.3-0.2-8.2-5.8-10.5c-6.2-2.6-12.4-5.2-18.6-7.7
		c-20.5-8.5-41.1-17.1-61.6-25.5c-5.5-2.3-9.2-1.4-11.2,3.2c-6.7,15.4-6.4,31.9,6,44.7c5.8,6,13.2,11,20.7,14.7
		c13,6.4,26.6,11.3,39.9,17.1c2.3,1,4.2,3.2,6,5.1c5.3,5.8,9.8,12.8,15.9,17.4c22.6,17.2,47.7,18.1,73.9,9.9
		c2.8-0.9,5.9-1.5,8.9-1.5c17.5-0.1,35.1,0,52.6-0.1c4.9,0,8.1-3.2,8-7.5c-0.1-4.1-3.2-6.9-7.9-7.1c-0.9,0-1.8,0-2.7,0
		c-17.5,0-35.1-0.1-52.6,0.1c-3.1,0-6.4,0.7-9.3,1.6c-9.4,3.1-18.9,5.1-28.7,4.5c-21-1.2-37.9-9.3-47.6-29.3
		c-0.9-1.9-3.3-3.6-5.4-4.5c-14.4-6.2-29.1-11.9-43.3-18.3c-5.7-2.6-11.3-6.2-16-10.4C250.3,115.4,247.9,107.3,250.2,97.9z
		 M251.7,403.9c-2.1-0.8-4-1.5-5.8-2.3c-22.7-9.4-45.3-18.8-68-28.2c-6.1-2.5-10.3-1.6-12.1,2.8c-1.9,4.4,0.3,8.1,6.3,10.6
		c7.3,3,14.6,6.1,21.9,9.1c19.3,8,38.5,16,57.8,24c5.5,2.3,8.9,1.2,11.2-3.3c7.4-14.7,5-32.6-6-44.8c-6.3-7.1-14.2-12-22.8-15.6
		c-12.5-5.3-25.1-10.3-37.5-15.8c-2.4-1.1-4.9-3.1-6.3-5.3c-6.9-10.8-15.9-19.3-27.5-24.7c-20.6-9.7-41.6-9.3-62.8-2.2
		c-2.4,0.8-5,1.3-7.5,1.3c-17.4,0.1-34.8,0-52.2,0.1c-5.9,0-9.2,2.6-9.3,7.1c-0.1,4.7,3.3,7.5,9.4,7.5c17.7,0,35.4,0.1,53.1-0.1
		c3.6,0,7.3-0.7,10.7-1.8c9.4-3.1,18.9-5,28.8-4.4c20.9,1.4,37.6,9.6,47.1,29.4c0.9,1.9,3.3,3.5,5.4,4.4c13.9,5.9,28,11.3,41.7,17.6
		c6.2,2.8,12.2,6.5,17.3,10.9C251.5,386.2,254,394.4,251.7,403.9z M404.7,251.8c0-2.3,0.2-4.6,0-6.9c-0.9-8.2-1.7-16.4-2.9-24.5
		c-0.7-4.7-4.3-7.3-8.3-6.7c-4.4,0.7-6.6,4-6.1,9.1c0.1,0.9,0.3,1.8,0.4,2.7c3.7,19.9,3,39.7-1.9,59.4c-4.4,17.5-12,33.5-22.6,48.1
		c-2.2,3-3.5,6.1-1.4,9.7c3,5,9.1,4.6,13.1-0.9C394.6,315,404.3,284.9,404.7,251.8z M96.3,250.5c1.2,9.8,2.2,19.7,3.5,29.5
		c0.9,6.5,4,9.3,8.9,8.6c4.7-0.7,6.6-4.6,5.5-11.1c-0.1-0.3-0.1-0.6-0.2-0.9c-4-21.2-3.1-42.2,2.6-62.9c4.4-16.2,11.7-31,21.6-44.6
		c3.5-4.8,3.2-8.9-0.5-11.7c-3.7-2.8-7.8-1.8-11.2,2.9C107,187.2,97.4,217.3,96.3,250.5z M157.1,133.2c-4-0.1-8.3,3.9-8.6,7.9
		c-0.2,4,3.2,7.6,7.3,7.6c4.2,0,8.2-4,8.2-8.1C164.2,136.6,161.1,133.3,157.1,133.2z M347.3,353.8c-4.3-0.1-8.1,3.3-8.3,7.4
		c-0.1,3.9,3.1,7.3,7.1,7.4c4,0.1,8.2-3.6,8.3-7.4C354.5,357.3,351.2,353.9,347.3,353.8z"/>
	<path d="M221.6,221.6c0-11.8,0-22.9,0-34c0-7.6,2.3-10,9.7-10c13.1,0,26.2,0,39.4,0c7.1,0,9.5,2.5,9.5,9.7c0,11.3,0,22.5,0,34.3
		c11.2,0,22,0,32.7,0c9.4,0,11.2,1.9,11.2,11.2c0,12.7,0,25.3,0,38c0,6.9-2.5,9.4-9.4,9.4c-11.3,0-22.6,0-34.6,0c0,1.6,0,3,0,4.5
		c0,10.1,0,20.1,0,30.2c0,6.6-2.5,9.2-9,9.3c-13.6,0-27.2,0-40.7,0c-6.2,0-8.8-2.7-8.8-9c0-11.4,0-22.9,0-34.7
		c-1.7-0.1-3.1-0.2-4.6-0.2c-10.4,0-20.8,0.1-31.1,0c-5.4,0-8.2-2.8-8.2-8.2c-0.1-14-0.1-28.1,0-42.1c0-5.6,2.9-8.2,8.6-8.2
		C197.9,221.6,209.5,221.6,221.6,221.6z M265.6,309.3c0-11.9,0-23.5,0-35c0-6,2.7-8.6,8.7-8.7c5.5-0.1,11,0,16.5,0
		c6.2,0,12.4,0,18.5,0c0-10.1,0-19.6,0-29.3c-11.2,0-22,0-32.8,0c-8.7,0-10.8-2-10.8-10.7c0-10.9,0-21.9,0-33c-10,0-19.5,0-29.3,0
		c0,11.8,0,23.4,0,35c0,6-2.7,8.6-8.7,8.7c-5.5,0.1-11,0-16.5,0c-6.2,0-12.4,0-18.5,0c0,10.1,0,19.6,0,29.3c11.2,0,22,0,32.8,0
		c8.7,0,10.8,2,10.8,10.7c0,10.9,0,21.9,0,33C246.1,309.3,255.5,309.3,265.6,309.3z"/>
	<path d="M240.3,455.4c-15.1,0-30.2,0.4-45.3-0.1c-11.7-0.4-22.6-4.6-33.1-9.7c-16.3-7.9-32.6-15.9-48.9-23.8
		c-13.7-6.6-28.1-9.8-43.3-9.7c-9.9,0.1-19.8,0-29.8,0c-5.4,0-8.7-2.8-8.7-7.2c0-4.5,3.2-7.5,8.6-7.4c16.8,0.5,33.6,0,50.2,2
		c10.3,1.2,20.6,5.5,30.3,9.7c16.5,7.2,32.5,15.5,48.6,23.4c12,5.8,24.6,8.9,38,8.8c23.5-0.1,47,0,70.5-0.1c2.2,0,4.6-0.4,6.6-1.2
		c19.1-7.8,38-15.7,57.1-23.4c3.6-1.5,4.4-3.4,3.8-6.9c-1.2-7-5.1-11.2-12.2-12.4c-9.2-1.5-17.9,1-26.5,3.4c-4.7,1.3-9.3,2.9-14,4.4
		c-5.7,1.8-9.5,0.4-11-3.9c-1.5-4.4,0.6-8.3,6.2-9.8c12-3.2,24.1-6.6,36.4-8.6c5.6-0.9,12,0.2,17.5,2c13.7,4.4,21.2,19.8,17.4,33.6
		c-1.4,5.2-4.5,8.8-9.5,10.9c-20.9,8.5-41.7,17.2-62.6,25.7c-2,0.8-4.4,1.1-6.7,1.1c-13.1,0.1-26.3,0-39.4,0
		C240.3,455.9,240.3,455.7,240.3,455.4z"/>
	<path d="M261.1,46.4c15.3,0,30.5-0.4,45.7,0.1c11.1,0.4,21.5,4.1,31.5,8.9c17.6,8.5,35.1,17.1,52.7,25.4c12.7,6,26.2,8.8,40.3,8.8
		c10.1,0,20.1,0,30.2,0c5.8,0,9.1,2.7,9.1,7.3c0,4.6-3.4,7.5-9.1,7.3c-16.5-0.4-33,0.1-49.3-2c-10.9-1.4-21.7-5.9-32-10.4
		c-16.6-7.3-32.7-15.7-49-23.5c-11.3-5.4-23.3-8-35.8-8c-23.7,0-47.3,0-71,0.1c-2.2,0-4.6,0.4-6.6,1.3c-19.1,7.8-38,15.7-57.1,23.4
		c-3.7,1.5-4.3,3.5-3.7,7c1.2,7,5.2,11.1,12.2,12.3c9.2,1.5,17.9-1.1,26.5-3.4c4.8-1.3,9.6-3,14.4-4.5c5.3-1.6,9.2-0.1,10.5,4.2
		c1.4,4.3-0.6,8.2-5.9,9.6c-12.5,3.3-25,7-37.7,8.9c-14.7,2.2-27.4-4.6-32-16.7c-2.1-5.4-2.4-11.9-2-17.8c0.3-5.7,4.1-9.9,9.8-12.2
		c20.6-8.4,41.1-17,61.7-25.3c2.3-0.9,5-1.4,7.5-1.4c13-0.1,25.9-0.1,38.9-0.1C261.1,45.9,261.1,46.2,261.1,46.4z"/>
	<path d="M250.2,97.9c-2.3,9.4,0.1,17.4,6.9,23.5c4.7,4.2,10.2,7.8,16,10.4c14.3,6.5,28.9,12.1,43.3,18.3c2.1,0.9,4.4,2.5,5.4,4.5
		c9.7,19.9,26.6,28.1,47.6,29.3c9.9,0.6,19.4-1.4,28.7-4.5c3-1,6.2-1.6,9.3-1.6c17.5-0.2,35.1-0.1,52.6-0.1c0.9,0,1.8,0,2.7,0
		c4.7,0.2,7.8,3,7.9,7.1c0.1,4.3-3.1,7.5-8,7.5c-17.5,0.1-35.1,0-52.6,0.1c-3,0-6,0.6-8.9,1.5c-26.2,8.2-51.3,7.3-73.9-9.9
		c-6.2-4.7-10.6-11.6-15.9-17.4c-1.8-1.9-3.7-4.1-6-5.1c-13.3-5.8-26.9-10.7-39.9-17.1c-7.5-3.7-14.8-8.7-20.7-14.7
		c-12.5-12.7-12.7-29.3-6-44.7c2-4.5,5.7-5.5,11.2-3.2c20.6,8.5,41.1,17,61.6,25.5c6.2,2.6,12.4,5.1,18.6,7.7
		c5.6,2.4,7.7,6.3,5.8,10.5c-1.8,4.1-6,5.3-11.3,3c-23.5-9.7-47-19.5-70.5-29.2C252.9,99,251.7,98.5,250.2,97.9z"/>
	<path d="M251.7,403.9c2.3-9.6-0.1-17.7-7.2-23.8c-5.1-4.4-11.1-8.1-17.3-10.9c-13.7-6.2-27.8-11.6-41.7-17.6
		c-2.1-0.9-4.4-2.5-5.4-4.4c-9.6-19.8-26.3-28-47.1-29.4c-9.8-0.6-19.4,1.3-28.8,4.4c-3.4,1.1-7.1,1.8-10.7,1.8
		c-17.7,0.2-35.4,0.1-53.1,0.1c-6.1,0-9.5-2.8-9.4-7.5c0.1-4.5,3.4-7.1,9.3-7.1c17.4,0,34.8,0,52.2-0.1c2.5,0,5.2-0.5,7.5-1.3
		c21.2-7.1,42.2-7.5,62.8,2.2c11.6,5.5,20.6,13.9,27.5,24.7c1.4,2.2,3.9,4.3,6.3,5.3c12.4,5.4,25,10.5,37.5,15.8
		c8.7,3.7,16.5,8.5,22.8,15.6c11,12.3,13.4,30.1,6,44.8c-2.3,4.5-5.7,5.6-11.2,3.3c-19.3-8-38.5-16-57.8-24
		c-7.3-3-14.6-6.1-21.9-9.1c-6-2.5-8.2-6.2-6.3-10.6c1.8-4.3,6-5.3,12.1-2.8c22.7,9.4,45.3,18.8,68,28.2
		C247.7,402.4,249.5,403.1,251.7,403.9z"/>
	<path d="M404.7,251.8c-0.4,33.1-10.1,63.2-29.7,90c-4,5.5-10.1,5.9-13.1,0.9c-2.2-3.6-0.9-6.6,1.4-9.7
		c10.7-14.5,18.3-30.5,22.6-48.1c4.9-19.7,5.6-39.5,1.9-59.4c-0.2-0.9-0.3-1.8-0.4-2.7c-0.5-5.1,1.7-8.5,6.1-9.1
		c4-0.6,7.6,2,8.3,6.7c1.2,8.1,2.1,16.3,2.9,24.5C404.9,247.2,404.7,249.5,404.7,251.8z"/>
	<path d="M96.3,250.5c1.1-33.2,10.7-63.3,30.2-90.2c3.4-4.7,7.5-5.7,11.2-2.9c3.7,2.8,3.9,6.9,0.5,11.7
		c-9.8,13.6-17.1,28.4-21.6,44.6c-5.7,20.8-6.6,41.7-2.6,62.9c0.1,0.3,0.1,0.6,0.2,0.9c1.1,6.5-0.8,10.4-5.5,11.1
		c-4.9,0.7-8-2.1-8.9-8.6C98.5,270.2,97.5,260.3,96.3,250.5z"/>
	<path d="M157.1,133.2c4,0.1,7.1,3.3,7,7.4c-0.1,4.2-4.1,8.1-8.2,8.1c-4.1,0-7.6-3.6-7.3-7.6C148.8,137.1,153.1,133.1,157.1,133.2z"
		/>
	<path d="M347.3,353.8c3.9,0.1,7.2,3.6,7.1,7.4c-0.1,3.8-4.3,7.6-8.3,7.4c-3.9-0.1-7.2-3.5-7.1-7.4
		C339.2,357.1,343,353.6,347.3,353.8z"/>
	<path class="st0" d="M265.6,309.3c-10.1,0-19.5,0-29.3,0c0-11.1,0-22.1,0-33c0-8.7-2-10.7-10.8-10.7c-10.8,0-21.6,0-32.8,0
		c0-9.7,0-19.2,0-29.3c6.1,0,12.3,0,18.5,0c5.5,0,11,0.1,16.5,0c6-0.1,8.6-2.7,8.7-8.7c0.1-11.6,0-23.1,0-35c9.8,0,19.3,0,29.3,0
		c0,11.1,0,22,0,33c0,8.7,2,10.7,10.8,10.7c10.8,0,21.6,0,32.8,0c0,9.7,0,19.2,0,29.3c-6.1,0-12.3,0-18.5,0c-5.5,0-11,0-16.5,0
		c-6,0.1-8.6,2.7-8.7,8.7C265.5,285.9,265.6,297.4,265.6,309.3z"/>
</g>
</svg>
