<svg version="1.1" id="Layer_1" xmlns="http://www.w3.org/2000/svg" xmlns:xlink="http://www.w3.org/1999/xlink" x="0px" y="0px" width="100%" height="100%" viewBox="0 0 64 64" enable-background="new 0 0 64 64" xml:space="preserve">
<path fill="none" stroke="#2b6aa6" stroke-width="2" stroke-miterlimit="10" d="M53.92,10.081c12.107,12.105,12.107,31.732,0,43.838
	c-12.106,12.108-31.734,12.108-43.84,0c-12.107-12.105-12.107-31.732,0-43.838C22.186-2.027,41.813-2.027,53.92,10.081z" style="stroke-dasharray: 195, 197; stroke-dashoffset: 0;"></path>
<path fill="none" stroke="#2b6aa6" stroke-width="2" stroke-miterlimit="10" d="M9.001000000000001,32A22.999,22.999 0,1,1 54.998999999999995,32A22.999,22.999 0,1,1 9.001000000000001,32" style="stroke-dasharray: 145, 147; stroke-dashoffset: 0;"></path>
<path fill="none" stroke="#2b6aa6" stroke-width="2" stroke-miterlimit="10" d="M17,32A15,15 0,1,1 47,32A15,15 0,1,1 17,32" style="stroke-dasharray: 95, 97; stroke-dashoffset: 0;"></path>
<path fill="none" stroke="#2b6aa6" stroke-width="2" stroke-miterlimit="10" d="M25.001,32A6.999,6.999 0,1,1 38.999,32A6.999,6.999 0,1,1 25.001,32" style="stroke-dasharray: 44, 46; stroke-dashoffset: 0;"></path>
</svg>